<svg id="visual" viewBox="0 0 2500 1406" width="2500" height="1406" xmlns="http://www.w3.org/2000/svg" xmlns:xlink="http://www.w3.org/1999/xlink" version="1.1"><rect x="0" y="0" width="2500" height="1406" fill="#1b1225"></rect><defs><linearGradient id="grad1_0" x1="43.8%" y1="0%" x2="100%" y2="100%"><stop offset="14.438122332859175%" stop-color="#432b5b" stop-opacity="1"></stop><stop offset="85.56187766714082%" stop-color="#432b5b" stop-opacity="1"></stop></linearGradient></defs><defs><linearGradient id="grad1_1" x1="43.8%" y1="0%" x2="100%" y2="100%"><stop offset="14.438122332859175%" stop-color="#432b5b" stop-opacity="1"></stop><stop offset="85.56187766714082%" stop-color="#2e1e3f" stop-opacity="1"></stop></linearGradient></defs><defs><linearGradient id="grad1_2" x1="43.8%" y1="0%" x2="100%" y2="100%"><stop offset="14.438122332859175%" stop-color="#1b1225" stop-opacity="1"></stop><stop offset="85.56187766714082%" stop-color="#2e1e3f" stop-opacity="1"></stop></linearGradient></defs><defs><linearGradient id="grad2_0" x1="0%" y1="0%" x2="56.2%" y2="100%"><stop offset="14.438122332859175%" stop-color="#432b5b" stop-opacity="1"></stop><stop offset="85.56187766714082%" stop-color="#432b5b" stop-opacity="1"></stop></linearGradient></defs><defs><linearGradient id="grad2_1" x1="0%" y1="0%" x2="56.2%" y2="100%"><stop offset="14.438122332859175%" stop-color="#2e1e3f" stop-opacity="1"></stop><stop offset="85.56187766714082%" stop-color="#432b5b" stop-opacity="1"></stop></linearGradient></defs><defs><linearGradient id="grad2_2" x1="0%" y1="0%" x2="56.2%" y2="100%"><stop offset="14.438122332859175%" stop-color="#2e1e3f" stop-opacity="1"></stop><stop offset="85.56187766714082%" stop-color="#1b1225" stop-opacity="1"></stop></linearGradient></defs><g transform="translate(2500, 0)"><path d="M0 913.9C-85.7 915.8 -171.5 917.7 -234.2 874.2C-297 830.6 -336.8 741.6 -402 696.3C-467.2 651 -557.7 649.3 -605.3 605.3C-652.9 561.3 -657.6 474.8 -708.4 409C-759.2 343.2 -856 297.9 -870.3 233.2C-884.6 168.5 -816.3 84.2 -748 0L0 0Z" fill="#241832"></path><path d="M0 609.3C-57.2 610.5 -114.3 611.8 -156.2 582.8C-198 553.7 -224.6 494.4 -268 464.2C-311.4 434 -371.8 432.9 -403.5 403.5C-435.3 374.2 -438.4 316.6 -472.3 272.7C-506.1 228.8 -570.7 198.6 -580.2 155.5C-589.7 112.3 -544.2 56.2 -498.7 0L0 0Z" fill="#38254d"></path><path d="M0 304.6C-28.6 305.3 -57.2 305.9 -78.1 291.4C-99 276.9 -112.3 247.2 -134 232.1C-155.7 217 -185.9 216.4 -201.8 201.8C-217.6 187.1 -219.2 158.3 -236.1 136.3C-253.1 114.4 -285.3 99.3 -290.1 77.7C-294.9 56.2 -272.1 28.1 -249.3 0L0 0Z" fill="#432b5b"></path></g><g transform="translate(0, 1406)"><path d="M0 -904C64.2 -839.4 128.4 -774.7 199.5 -744.7C270.7 -714.7 348.7 -719.3 392 -679C435.3 -638.6 444 -553.2 519 -519C594 -484.8 735.4 -501.7 791.5 -457C847.5 -412.2 818.1 -305.7 818.1 -219.2C818.2 -132.8 847.6 -66.4 877 0L0 0Z" fill="#241832"></path><path d="M0 -602.7C42.8 -559.6 85.6 -516.5 133 -496.5C180.4 -476.5 232.4 -479.6 261.3 -452.6C290.2 -425.7 296 -368.8 346 -346C396 -323.2 490.3 -334.5 527.6 -304.6C565 -274.8 545.4 -203.8 545.4 -146.1C545.4 -88.5 565.1 -44.3 584.7 0L0 0Z" fill="#38254d"></path><path d="M0 -301.3C21.4 -279.8 42.8 -258.2 66.5 -248.2C90.2 -238.2 116.2 -239.8 130.7 -226.3C145.1 -212.9 148 -184.4 173 -173C198 -161.6 245.1 -167.2 263.8 -152.3C282.5 -137.4 272.7 -101.9 272.7 -73.1C272.7 -44.3 282.5 -22.1 292.3 0L0 0Z" fill="#432b5b"></path></g></svg>