<svg width="178" height="227" viewBox="0 0 178 227" fill="none" xmlns="http://www.w3.org/2000/svg">
<path d="M177.91 214.53C161.458 222.232 143.506 226.2 125.34 226.15C98.9622 226.155 73.2637 217.786 51.9474 202.249C30.6312 186.711 14.7977 164.808 6.72833 139.695C-1.34101 114.581 -1.22958 87.5548 7.04657 62.5089C15.3227 37.463 31.3363 15.6911 52.78 0.330078L77.9899 37.64C64.534 47.599 54.5623 61.5488 49.4942 77.5037C44.4261 93.4586 44.5199 110.606 49.7621 126.504C55.0044 142.403 65.1281 156.243 78.6922 166.054C92.2563 175.865 108.569 181.148 125.31 181.15C136.476 181.186 147.522 178.84 157.71 174.27L177.91 214.53Z" fill="#F2CFFF"/>
</svg>
