<svg id="visual" viewBox="0 0 1920 1080" width="1920" height="1080" xmlns="http://www.w3.org/2000/svg" xmlns:xlink="http://www.w3.org/1999/xlink" version="1.1"><g stroke-width="1" stroke-linejoin="bevel"><path d="M963 543L957 808L1282 809Z" fill="#3e1a4a" stroke="#3e1a4a"></path><path d="M1282 809L1278 542L963 543Z" fill="#2e1e3e" stroke="#2e1e3e"></path><path d="M957 808L961 1080L1282 809Z" fill="#371d45" stroke="#371d45"></path><path d="M961 1080L1283 1080L1282 809Z" fill="#331d43" stroke="#331d43"></path><path d="M1278 542L962 269L963 543Z" fill="#3a1b48" stroke="#3a1b48"></path><path d="M636 542L640 813L957 808Z" fill="#331d43" stroke="#331d43"></path><path d="M1278 542L1279 268L962 269Z" fill="#2e1e3e" stroke="#2e1e3e"></path><path d="M1597 541L1279 268L1278 542Z" fill="#331d43" stroke="#331d43"></path><path d="M1596 1080L1597 806L1282 809Z" fill="#301e40" stroke="#301e40"></path><path d="M1282 809L1597 541L1278 542Z" fill="#2d1e3d" stroke="#2d1e3d"></path><path d="M1597 806L1597 541L1282 809Z" fill="#381c47" stroke="#381c47"></path><path d="M636 542L957 808L963 543Z" fill="#351d44" stroke="#351d44"></path><path d="M957 808L640 813L961 1080Z" fill="#371d45" stroke="#371d45"></path><path d="M640 271L636 542L963 543Z" fill="#371d45" stroke="#371d45"></path><path d="M1283 1080L1596 1080L1282 809Z" fill="#3e1a4a" stroke="#3e1a4a"></path><path d="M321 1080L639 1080L640 813Z" fill="#331d43" stroke="#331d43"></path><path d="M640 813L639 1080L961 1080Z" fill="#301e40" stroke="#301e40"></path><path d="M962 269L640 271L963 543Z" fill="#2d1e3d" stroke="#2d1e3d"></path><path d="M1920 542L1601 271L1597 541Z" fill="#351d44" stroke="#351d44"></path><path d="M1597 541L1601 271L1279 268Z" fill="#381c47" stroke="#381c47"></path><path d="M1920 542L1597 541L1597 806Z" fill="#3c1b49" stroke="#3c1b49"></path><path d="M1279 268L962 0L962 269Z" fill="#321e41" stroke="#321e41"></path><path d="M962 269L642 0L640 271Z" fill="#381c47" stroke="#381c47"></path><path d="M1282 0L962 0L1279 268Z" fill="#2d1e3d" stroke="#2d1e3d"></path><path d="M1600 0L1282 0L1279 268Z" fill="#321e41" stroke="#321e41"></path><path d="M1920 1080L1920 807L1597 806Z" fill="#381c47" stroke="#381c47"></path><path d="M323 273L320 541L636 542Z" fill="#351d44" stroke="#351d44"></path><path d="M636 542L318 810L640 813Z" fill="#3c1b49" stroke="#3c1b49"></path><path d="M1920 807L1920 542L1597 806Z" fill="#3a1b48" stroke="#3a1b48"></path><path d="M320 541L318 810L636 542Z" fill="#331d43" stroke="#331d43"></path><path d="M640 271L323 273L636 542Z" fill="#3a1b48" stroke="#3a1b48"></path><path d="M962 0L642 0L962 269Z" fill="#2d1e3d" stroke="#2d1e3d"></path><path d="M1920 269L1600 0L1601 271Z" fill="#301e40" stroke="#301e40"></path><path d="M1601 271L1600 0L1279 268Z" fill="#381c47" stroke="#381c47"></path><path d="M318 810L321 1080L640 813Z" fill="#381c47" stroke="#381c47"></path><path d="M322 0L323 273L640 271Z" fill="#321e41" stroke="#321e41"></path><path d="M1596 1080L1920 1080L1597 806Z" fill="#331d43" stroke="#331d43"></path><path d="M1920 542L1920 269L1601 271Z" fill="#2d1e3d" stroke="#2d1e3d"></path><path d="M642 0L322 0L640 271Z" fill="#371d45" stroke="#371d45"></path><path d="M0 540L0 806L320 541Z" fill="#321e41" stroke="#321e41"></path><path d="M320 541L0 806L318 810Z" fill="#3e1a4a" stroke="#3e1a4a"></path><path d="M1920 269L1920 0L1600 0Z" fill="#301e40" stroke="#301e40"></path><path d="M0 540L320 541L323 273Z" fill="#381c47" stroke="#381c47"></path><path d="M318 810L0 1080L321 1080Z" fill="#381c47" stroke="#381c47"></path><path d="M0 268L0 540L323 273Z" fill="#301e40" stroke="#301e40"></path><path d="M0 806L0 1080L318 810Z" fill="#321e41" stroke="#321e41"></path><path d="M322 0L0 268L323 273Z" fill="#381c47" stroke="#381c47"></path><path d="M322 0L0 0L0 268Z" fill="#371d45" stroke="#371d45"></path></g></svg>